<mxfile host="app.diagrams.net" agent="Mozilla/5.0 (Windows NT 10.0; Win64; x64) AppleWebKit/537.36 (KHTML, like Gecko) Chrome/135.0.0.0 Safari/537.36 Edg/135.0.0.0" version="26.2.13">
  <diagram name="第 1 页" id="vNFUlpaIv1JxyX0tzGv5">
    <mxGraphModel dx="641" dy="472" grid="0" gridSize="10" guides="1" tooltips="1" connect="1" arrows="1" fold="1" page="1" pageScale="1" pageWidth="827" pageHeight="1169" math="0" shadow="0">
      <root>
        <mxCell id="0" />
        <mxCell id="1" parent="0" />
        <mxCell id="6qMJtSm84Um4Gd2NX5-u-43" value="&lt;font style=&quot;color: rgb(230, 230, 230);&quot;&gt;application&amp;nbsp;&lt;/font&gt;" style="text;html=1;strokeColor=none;fillColor=none;align=center;verticalAlign=middle;whiteSpace=wrap;rounded=0;fontSize=20;fontColor=#000000;" vertex="1" parent="1">
          <mxGeometry x="380" y="60" width="80" height="30" as="geometry" />
        </mxCell>
        <mxCell id="6qMJtSm84Um4Gd2NX5-u-46" value="" style="endArrow=none;html=1;rounded=1;strokeColor=#E6E6E6;strokeWidth=0.5;entryX=1;entryY=0.5;entryDx=0;entryDy=0;dashed=1;dashPattern=8 8;" edge="1" parent="1" target="6qMJtSm84Um4Gd2NX5-u-44">
          <mxGeometry width="50" height="50" relative="1" as="geometry">
            <mxPoint x="420" y="100" as="sourcePoint" />
            <mxPoint x="350" y="340" as="targetPoint" />
            <Array as="points">
              <mxPoint x="420" y="180" />
              <mxPoint x="420" y="245" />
            </Array>
          </mxGeometry>
        </mxCell>
        <mxCell id="6qMJtSm84Um4Gd2NX5-u-47" value="" style="endArrow=none;html=1;rounded=1;strokeColor=#E6E6E6;strokeWidth=0.5;entryX=0;entryY=0.75;entryDx=0;entryDy=0;dashed=1;dashPattern=8 8;" edge="1" parent="1" source="6qMJtSm84Um4Gd2NX5-u-43" target="6qMJtSm84Um4Gd2NX5-u-45">
          <mxGeometry width="50" height="50" relative="1" as="geometry">
            <mxPoint x="420" y="90" as="sourcePoint" />
            <mxPoint x="575" y="315" as="targetPoint" />
            <Array as="points">
              <mxPoint x="420" y="180" />
              <mxPoint x="420" y="338" />
            </Array>
          </mxGeometry>
        </mxCell>
        <mxCell id="6qMJtSm84Um4Gd2NX5-u-66" value="" style="group;collapsible=1;" vertex="1" connectable="0" parent="1">
          <mxGeometry x="110" y="115" width="290" height="235" as="geometry">
            <mxRectangle x="110" y="115" width="50" height="40" as="alternateBounds" />
          </mxGeometry>
        </mxCell>
        <mxCell id="6qMJtSm84Um4Gd2NX5-u-44" value="&lt;font style=&quot;color: rgb(230, 230, 230);&quot;&gt;(一) &lt;/font&gt;网络应用 &lt;font color=&quot;#b85450&quot;&gt;模型&lt;/font&gt; &lt;font style=&quot;color: rgb(230, 230, 230);&quot;&gt;|&lt;/font&gt; DNS &lt;font style=&quot;color: rgb(230, 230, 230);&quot;&gt;系统&lt;/font&gt;" style="text;html=1;strokeColor=none;fillColor=none;align=left;verticalAlign=middle;whiteSpace=wrap;rounded=0;fontSize=14;" vertex="1" parent="6qMJtSm84Um4Gd2NX5-u-66">
          <mxGeometry x="20" y="115" width="230" height="30" as="geometry" />
        </mxCell>
        <mxCell id="6qMJtSm84Um4Gd2NX5-u-51" value="" style="endArrow=none;html=1;rounded=1;strokeColor=#E6E6E6;exitX=0.75;exitY=0;exitDx=0;exitDy=0;entryX=0.5;entryY=1;entryDx=0;entryDy=0;dashed=1;dashPattern=8 8;" edge="1" parent="6qMJtSm84Um4Gd2NX5-u-66" source="6qMJtSm84Um4Gd2NX5-u-44" target="6qMJtSm84Um4Gd2NX5-u-48">
          <mxGeometry width="50" height="50" relative="1" as="geometry">
            <mxPoint x="63.69999999999999" y="115" as="sourcePoint" />
            <mxPoint x="35.00000000000001" y="30" as="targetPoint" />
            <Array as="points">
              <mxPoint x="193" y="70" />
              <mxPoint x="45" y="70" />
            </Array>
          </mxGeometry>
        </mxCell>
        <mxCell id="6qMJtSm84Um4Gd2NX5-u-56" value="" style="endArrow=none;html=1;rounded=1;strokeColor=#E6E6E6;exitX=0.25;exitY=1;exitDx=0;exitDy=0;entryX=0.5;entryY=0;entryDx=0;entryDy=0;dashed=1;dashPattern=8 8;" edge="1" parent="6qMJtSm84Um4Gd2NX5-u-66" source="6qMJtSm84Um4Gd2NX5-u-44" target="6qMJtSm84Um4Gd2NX5-u-54">
          <mxGeometry width="50" height="50" relative="1" as="geometry">
            <mxPoint x="77.50000000000001" y="145" as="sourcePoint" />
            <mxPoint x="5" y="200" as="targetPoint" />
            <Array as="points">
              <mxPoint x="78" y="170" />
              <mxPoint x="25" y="170" />
            </Array>
          </mxGeometry>
        </mxCell>
        <mxCell id="6qMJtSm84Um4Gd2NX5-u-57" value="" style="endArrow=none;html=1;rounded=1;strokeColor=#E6E6E6;exitX=0.25;exitY=1;exitDx=0;exitDy=0;entryX=0.5;entryY=0;entryDx=0;entryDy=0;dashed=1;dashPattern=8 8;" edge="1" parent="6qMJtSm84Um4Gd2NX5-u-66" source="6qMJtSm84Um4Gd2NX5-u-44" target="6qMJtSm84Um4Gd2NX5-u-55">
          <mxGeometry width="50" height="50" relative="1" as="geometry">
            <mxPoint x="192.5" y="145" as="sourcePoint" />
            <mxPoint x="125.00000000000001" y="200" as="targetPoint" />
            <Array as="points">
              <mxPoint x="80" y="170" />
              <mxPoint x="125.00000000000001" y="170" />
            </Array>
          </mxGeometry>
        </mxCell>
        <mxCell id="6qMJtSm84Um4Gd2NX5-u-69" value="" style="group;collapsible=1;" vertex="1" connectable="0" parent="6qMJtSm84Um4Gd2NX5-u-66" collapsed="1">
          <mxGeometry x="20" width="50" height="40" as="geometry">
            <mxRectangle x="20" width="270" height="30" as="alternateBounds" />
          </mxGeometry>
        </mxCell>
        <mxCell id="6qMJtSm84Um4Gd2NX5-u-48" value="DN" style="shape=rectangle;whiteSpace=wrap;html=1;fillColor=#DAE8FC;strokeColor=#6C8EBF;fontColor=#0000FF;fontSize=14;" vertex="1" parent="6qMJtSm84Um4Gd2NX5-u-69">
          <mxGeometry width="50" height="30" as="geometry" />
        </mxCell>
        <mxCell id="6qMJtSm84Um4Gd2NX5-u-49" value="DN Sever" style="text;html=1;strokeColor=none;fillColor=none;align=center;verticalAlign=middle;whiteSpace=wrap;rounded=0;fontColor=#808080;fontSize=14;" vertex="1" parent="6qMJtSm84Um4Gd2NX5-u-69">
          <mxGeometry x="50.000000000000014" width="80" height="30" as="geometry" />
        </mxCell>
        <mxCell id="6qMJtSm84Um4Gd2NX5-u-50" value="DN Resolution&lt;div&gt;过程&lt;/div&gt;" style="text;html=1;strokeColor=none;fillColor=none;align=left;verticalAlign=middle;whiteSpace=wrap;rounded=0;fontColor=#808080;fontSize=14;" vertex="1" parent="6qMJtSm84Um4Gd2NX5-u-69">
          <mxGeometry x="150.00000000000003" width="120" height="30" as="geometry" />
        </mxCell>
        <mxCell id="6qMJtSm84Um4Gd2NX5-u-70" value="" style="group;collapsible=1;" vertex="1" connectable="0" parent="6qMJtSm84Um4Gd2NX5-u-66" collapsed="1">
          <mxGeometry x="-1" y="195" width="50" height="40" as="geometry">
            <mxRectangle x="-1" y="195" width="149" height="35" as="alternateBounds" />
          </mxGeometry>
        </mxCell>
        <mxCell id="6qMJtSm84Um4Gd2NX5-u-54" value="&lt;font color=&quot;#b85450&quot;&gt;C&lt;/font&gt;/&lt;font color=&quot;#60a917&quot;&gt;S&lt;/font&gt;" style="text;html=1;strokeColor=none;fillColor=none;align=center;verticalAlign=middle;whiteSpace=wrap;rounded=0;fontSize=14;" vertex="1" parent="6qMJtSm84Um4Gd2NX5-u-70">
          <mxGeometry width="50" height="30" as="geometry" />
        </mxCell>
        <mxCell id="6qMJtSm84Um4Gd2NX5-u-55" value="P2P" style="text;html=1;strokeColor=none;fillColor=none;align=center;verticalAlign=middle;whiteSpace=wrap;rounded=0;fontColor=#0000FF;fontSize=14;" vertex="1" parent="6qMJtSm84Um4Gd2NX5-u-70">
          <mxGeometry x="100" y="5" width="50" height="30" as="geometry" />
        </mxCell>
        <mxCell id="6qMJtSm84Um4Gd2NX5-u-74" value="" style="group;collapsible=1;" vertex="1" connectable="0" parent="1">
          <mxGeometry x="460" y="243" width="360" height="197" as="geometry">
            <mxRectangle x="460" y="243" width="50" height="40" as="alternateBounds" />
          </mxGeometry>
        </mxCell>
        <mxCell id="6qMJtSm84Um4Gd2NX5-u-65" value="" style="endArrow=none;html=1;rounded=1;strokeColor=#E6E6E6;exitX=0.75;exitY=1;exitDx=0;exitDy=0;entryX=0.5;entryY=0;entryDx=0;entryDy=0;dashed=1;dashPattern=8 8;" edge="1" parent="6qMJtSm84Um4Gd2NX5-u-74" source="6qMJtSm84Um4Gd2NX5-u-45" target="6qMJtSm84Um4Gd2NX5-u-63">
          <mxGeometry width="50" height="50" relative="1" as="geometry">
            <mxPoint x="172.5" y="102" as="sourcePoint" />
            <mxPoint x="330" y="157" as="targetPoint" />
            <Array as="points">
              <mxPoint x="173" y="127" />
              <mxPoint x="330" y="127" />
            </Array>
          </mxGeometry>
        </mxCell>
        <mxCell id="6qMJtSm84Um4Gd2NX5-u-45" value="&lt;font style=&quot;color: rgb(230, 230, 230);&quot;&gt;(二)&lt;/font&gt; FTP &lt;font style=&quot;color: rgb(230, 230, 230);&quot;&gt;| &lt;/font&gt;电子邮件 &lt;font style=&quot;color: rgb(230, 230, 230);&quot;&gt;| &lt;/font&gt;WWW" style="text;html=1;strokeColor=none;fillColor=none;align=left;verticalAlign=middle;whiteSpace=wrap;rounded=0;fontSize=14;" vertex="1" parent="6qMJtSm84Um4Gd2NX5-u-74">
          <mxGeometry y="72" width="230" height="30" as="geometry" />
        </mxCell>
        <mxCell id="6qMJtSm84Um4Gd2NX5-u-60" value="" style="endArrow=none;html=1;rounded=1;strokeColor=#E6E6E6;exitX=0.434;exitY=0.02;exitDx=0;exitDy=0;entryX=0.5;entryY=1;entryDx=0;entryDy=0;exitPerimeter=0;dashed=1;dashPattern=8 8;" edge="1" parent="6qMJtSm84Um4Gd2NX5-u-74" source="6qMJtSm84Um4Gd2NX5-u-45" target="6qMJtSm84Um4Gd2NX5-u-58">
          <mxGeometry width="50" height="50" relative="1" as="geometry">
            <mxPoint x="57.5" y="72" as="sourcePoint" />
            <mxPoint x="50" y="37" as="targetPoint" />
            <Array as="points">
              <mxPoint x="100" y="47" />
              <mxPoint x="59" y="47" />
            </Array>
          </mxGeometry>
        </mxCell>
        <mxCell id="6qMJtSm84Um4Gd2NX5-u-61" value="" style="endArrow=none;html=1;rounded=1;strokeColor=#E6E6E6;exitX=0.434;exitY=-0.011;exitDx=0;exitDy=0;entryX=0.5;entryY=1;entryDx=0;entryDy=0;exitPerimeter=0;dashed=1;dashPattern=8 8;" edge="1" parent="6qMJtSm84Um4Gd2NX5-u-74" source="6qMJtSm84Um4Gd2NX5-u-45" target="6qMJtSm84Um4Gd2NX5-u-59">
          <mxGeometry width="50" height="50" relative="1" as="geometry">
            <mxPoint x="172.5" y="72" as="sourcePoint" />
            <mxPoint x="190" y="37" as="targetPoint" />
            <Array as="points">
              <mxPoint x="100" y="47" />
              <mxPoint x="179" y="47" />
            </Array>
          </mxGeometry>
        </mxCell>
        <mxCell id="6qMJtSm84Um4Gd2NX5-u-64" value="" style="endArrow=none;html=1;rounded=1;strokeColor=#E6E6E6;exitX=0.75;exitY=1;exitDx=0;exitDy=0;entryX=0.5;entryY=0;entryDx=0;entryDy=0;dashed=1;dashPattern=8 8;" edge="1" parent="6qMJtSm84Um4Gd2NX5-u-74" source="6qMJtSm84Um4Gd2NX5-u-45" target="6qMJtSm84Um4Gd2NX5-u-62">
          <mxGeometry width="50" height="50" relative="1" as="geometry">
            <mxPoint x="172.5" y="102" as="sourcePoint" />
            <mxPoint x="210" y="157" as="targetPoint" />
            <Array as="points">
              <mxPoint x="173" y="127" />
              <mxPoint x="210" y="127" />
              <mxPoint x="230" y="127" />
            </Array>
          </mxGeometry>
        </mxCell>
        <mxCell id="6qMJtSm84Um4Gd2NX5-u-75" value="" style="group;collapsible=1;" vertex="1" connectable="0" parent="6qMJtSm84Um4Gd2NX5-u-74" collapsed="1">
          <mxGeometry x="180" y="157" width="50" height="40" as="geometry">
            <mxRectangle x="180" y="157" width="180" height="30" as="alternateBounds" />
          </mxGeometry>
        </mxCell>
        <mxCell id="6qMJtSm84Um4Gd2NX5-u-63" value="HTTP" style="text;html=1;strokeColor=none;fillColor=none;align=center;verticalAlign=middle;whiteSpace=wrap;rounded=0;fontColor=#B85450;fontSize=14;" vertex="1" parent="6qMJtSm84Um4Gd2NX5-u-75">
          <mxGeometry x="120" width="60" height="30" as="geometry" />
        </mxCell>
        <mxCell id="6qMJtSm84Um4Gd2NX5-u-62" value="WWW" style="text;html=1;strokeColor=none;fillColor=none;align=center;verticalAlign=middle;whiteSpace=wrap;rounded=0;fontColor=#808080;fontSize=14;" vertex="1" parent="6qMJtSm84Um4Gd2NX5-u-75">
          <mxGeometry x="20" width="60" height="30" as="geometry" />
        </mxCell>
        <mxCell id="6qMJtSm84Um4Gd2NX5-u-76" value="" style="group;collapsible=1;" vertex="1" connectable="0" parent="6qMJtSm84Um4Gd2NX5-u-74" collapsed="1">
          <mxGeometry x="9" width="50" height="40" as="geometry">
            <mxRectangle x="9" width="220" height="30" as="alternateBounds" />
          </mxGeometry>
        </mxCell>
        <mxCell id="6qMJtSm84Um4Gd2NX5-u-58" value="MIME" style="text;html=1;strokeColor=none;fillColor=none;align=center;verticalAlign=middle;whiteSpace=wrap;rounded=0;fontColor=#808080;fontSize=14;" vertex="1" parent="6qMJtSm84Um4Gd2NX5-u-76">
          <mxGeometry x="20" width="60" height="30" as="geometry" />
        </mxCell>
        <mxCell id="6qMJtSm84Um4Gd2NX5-u-59" value="STMP&amp;amp;POP3" style="text;html=1;strokeColor=none;fillColor=none;align=center;verticalAlign=middle;whiteSpace=wrap;rounded=0;fontColor=#808080;fontSize=14;" vertex="1" parent="6qMJtSm84Um4Gd2NX5-u-76">
          <mxGeometry x="120" width="100" height="30" as="geometry" />
        </mxCell>
      </root>
    </mxGraphModel>
  </diagram>
</mxfile>
